PathFileType	4	(X/Y/Z)	C:/Users/beibeiliu/ov580/test_trc/User1\sequence.37_training_dense_left.trc
DataRate	CameraRate	NumFrames	NumMarkers	Units	OrigDataRate	OrigDataStartFrame	OrigNumFrames
120	120	23	19	mm	120	183	243
Frame#	Time	ThumbCMC			ThumbMCP			ThumbIP			ThumbTip			IndexMCP			IndexPIP			IndexTip			MiddleMCP			MiddlePIP			MiddleTip			RingMCP			RingPIP			RingTip			PinkyMCP			PinkyPIP			PinkyTip			BackHand1			BackHand2			BackHand3	
		X0	Y0	Z0	X1	Y1	Z1	X2	Y2	Z2	X3	Y3	Z3	X4	Y4	Z4	X5	Y5	Z5	X6	Y6	Z6	X7	Y7	Z7	X8	Y8	Z8	X9	Y9	Z9	X10	Y10	Z10	X11	Y11	Z11	X12	Y12	Z12	X13	Y13	Z13	X14	Y14	Z14	X15	Y15	Z15	X16	Y16	Z16	X17	Y17	Z17	X18	Y18	Z18	
182	1.51667	-93.9008	-5.48602	34.9595	-70.9693	-5.92732	5.87889	-61.0242	-9.04584	-21.076	-49.4163	-11.8223	-38.2251	-85.6463	-39.0934	-41.0917	-55.0281	-50.3043	-36.7163	-43.9123	-42.2538	-0.588712	-86.7802	-63.6528	-36.0434	-53.1179	-65.0074	-18.8686	-60.1728	-51.3326	13.1915	-83.1887	-79.6278	-18.7321	-56.0218	-75.0052	-0.025803	-64.7515	-58.073	29.7745	-90.0958	-96.9966	-0.00913905	-66.1096	-86.9722	12.8559	-79.1163	-60.1024	32.0374	-134.131	-63.0868	18.6511	-140.432	-49.5982	53.2595	-130.181	-24.8638	25.4023	
183	1.525	-94.7852	-6.50279	32.9966	-69.8628	-6.30931	6.31612	-60.5867	-9.57019	-19.3833	-51.195	-17.9506	-39.5437	-84.5021	-42.6244	-41.5116	-50.2295	-48.9153	-34.3418	-42.9492	-42.5175	-3.20221	-89.3094	-66.3444	-34.2911	-53.179	-65.684	-18.32	-64.1629	-48.7413	14.8144	-85.4372	-82.3668	-17.1615	-56.112	-77.6217	2.35044	-64.038	-58.4404	26.7489	-92.3593	-98.4402	0.805436	-68.127	-82.7278	11.3087	-76.7196	-58.5827	29.2069	-133.885	-59.3161	19.4203	-141.908	-52.3525	52.9099	-130.602	-24.7805	26.9864	
184	1.53333	-93.8465	-4.93435	29.1721	-69.2022	-7.0384	6.25267	-60.6171	-13.2686	-18.8397	-49.1519	-16.0128	-35.9584	-85.3115	-41.7917	-40.8117	-54.7176	-50.9958	-36.3443	-45.2024	-47.4825	-2.5352	-84.692	-68.0961	-34.8167	-54.2035	-65.1583	-22.7507	-62.6353	-48.4086	13.0301	-82.8567	-84.7389	-16.9925	-56.9312	-76.2276	0.251601	-66.7869	-57.8226	29.2296	-90.2048	-97.6264	-0.131903	-67.6614	-82.1421	11.2225	-78.8615	-61.4443	31.9835	-134.955	-61.3429	17.7779	-138.821	-49.6693	52.552	-130.223	-24.3792	23.2473	
185	1.54167	-92.0413	-5.2082	30.7858	-69.3783	-8.72447	5.46409	-60.1736	-12.7921	-21.2154	-49.6278	-18.5317	-39.1677	-82.6302	-41.8529	-42.191	-54.6848	-52.7502	-35.9795	-45.7879	-48.2292	-2.6827	-85.927	-63.6299	-37.233	-56.0438	-67.4763	-20.9791	-64.65	-50.445	12.7205	-87.7057	-82.113	-17.0612	-57.3179	-76.1926	-2.90869	-66.9982	-57.718	26.1436	-95.0018	-94.663	-1.12302	-67.9529	-83.4905	14.2211	-79.7954	-61.096	29.5919	-135.104	-59.6623	17.1076	-138.761	-47.9337	48.5397	-129.097	-22.5916	22.5764	
186	1.55	-91.1678	-2.44374	30.8533	-68.143	-8.42801	5.7349	-56.6547	-10.5029	-19.1442	-46.7225	-15.8151	-36.1016	-85.6467	-40.5046	-40.003	-51.3683	-52.8462	-33.715	-44.9412	-48.1981	-3.88139	-89.9607	-66.0084	-34.2431	-54.5588	-66.0855	-20.1351	-64.0765	-50.4597	13.4684	-83.6276	-81.1332	-18.4888	-57.354	-77.6352	1.58317	-69.4581	-59.105	29.3797	-91.2728	-98.6801	0.893731	-68.9773	-84.1394	10.859	-81.7842	-57.9987	28.7263	-135.567	-63.4944	20.049	-141.429	-48.5748	49.275	-128.528	-20.5211	25.5913	
187	1.55833	-92.5231	-6.59763	32.7275	-70.069	-9.36962	8.42962	-57.8657	-9.92704	-18.9386	-47.3268	-11.986	-38.0653	-83.0004	-42.0725	-41.6749	-54.0132	-51.6887	-38.4907	-44.7116	-45.0408	-0.749546	-85.3047	-63.2753	-36.7995	-54.8069	-68.7228	-20.4912	-61.8516	-51.6263	12.5469	-83.7393	-80.1788	-19.5372	-57.0869	-75.206	-1.09623	-64.8312	-60.237	26.3311	-91.2372	-98.4947	0.711952	-67.3131	-85.5457	13.7651	-79.6411	-60.1761	31.2476	-132.661	-59.1062	14.7386	-139.671	-51.0609	50.0888	-130.043	-25.2477	23.1924	
188	1.56667	-92.6887	-4.13045	32.052	-69.9348	-5.00555	6.25234	-60.238	-6.44447	-19.9675	-49.4213	-10.5936	-39.8324	-83.993	-40.5548	-41.7103	-53.5959	-50.7479	-37.8995	-46.0154	-44.9462	-0.892479	-89.8423	-66.1325	-33.7202	-54.6403	-66.8314	-21.9824	-61.2871	-46.9442	15.234	-85.323	-83.5494	-17.7723	-56.7494	-78.2773	0.909225	-65.6051	-58.2802	27.3429	-89.5659	-96.1453	-0.699065	-67.5618	-87.384	12.7955	-76.4583	-62.8548	32.5265	-136.277	-63.6522	15.4737	-140.464	-48.6378	53.237	-130.401	-24.5665	21.9624	
189	1.575	-93.3253	-4.14817	31.5285	-73.3855	-7.1914	7.1736	-60.4621	-2.80355	-17.2913	-48.6123	-5.22088	-40.5616	-85.8006	-38.0041	-41.1032	-52.6581	-50.2572	-36.4366	-44.8701	-41.9545	-3.11121	-88.6869	-64.6785	-34.8577	-54.8613	-69.298	-21.974	-58.2736	-51.6105	15.3508	-84.3719	-80.7673	-20.0958	-55.5535	-78.807	1.8753	-63.159	-58.2637	28.1176	-90.0517	-97.8568	-0.633747	-68.9432	-85.0697	10.2643	-77.071	-59.6062	30.5943	-135.994	-58.7646	18.9517	-141.703	-48.8855	53.5915	-127.781	-22.4933	24.374	
190	1.58333	-93.1342	-1.08819	31.6394	-71.9662	-2.01221	5.40782	-61.6608	-1.13563	-19.5639	-49.8419	-3.92246	-39.8187	-86.9889	-39.6803	-39.3726	-56.6481	-53.458	-34.4599	-47.4363	-40.5365	-0.436416	-88.2096	-65.3387	-34.951	-52.7945	-66.0507	-22.4091	-54.2235	-53.3122	13.7328	-89.0099	-85.1524	-16.9956	-57.0871	-78.226	-3.91433	-61.0585	-62.6228	27.1838	-95.8363	-96.3152	-0.0281662	-68.4905	-84.8157	9.88437	-75.3617	-57.5483	29.9812	-134.539	-64.2527	16.4752	-140.42	-52.2063	50.379	-128.44	-20.8687	27.346	
191	1.59167	-95.9979	-3.68048	31.197	-74.0736	0.358135	10.2954	-63.7548	0.0506779	-14.5688	-52.5434	-7.67523	-38.3508	-86.0158	-40.4549	-39.7908	-54.2087	-51.4481	-34.9591	-48.2753	-43.2044	-1.20029	-89.0651	-65.0328	-34.8826	-55.772	-70.3487	-24.0638	-52.1729	-52.4954	13.8129	-86.5123	-80.7217	-21.3134	-57.1996	-80.092	-3.2384	-59.9941	-63.8645	25.1598	-94.3876	-94.0774	-1.47307	-68.1556	-86.7479	8.07993	-76.0569	-58.6617	27.2341	-136.534	-62.9445	17.3289	-141.463	-51.4551	49.9162	-130.201	-25.1735	28.3224	
192	1.6	-95.2698	1.06076	33.9866	-74.842	3.98111	8.15138	-65.4554	-0.629814	-17.0431	-49.5456	-8.58109	-40.2386	-85.4482	-39.721	-41.8404	-58.1879	-52.9543	-35.7769	-46.4576	-39.6354	-2.56643	-92.0962	-64.0108	-34.2723	-57.3707	-70.4289	-24.4969	-49.6451	-55.7601	10.6528	-88.4552	-83.5618	-19.3895	-56.9014	-80.7117	-5.42144	-57.8949	-60.13	22.4585	-95.8271	-98.4233	0.728897	-67.8363	-89.1516	8.06031	-70.7726	-60.9708	28.6855	-135.823	-61.3177	20.8141	-140.04	-47.1393	54.5279	-129.774	-23.0151	27.9072	
193	1.60833	-97.1873	2.69476	36.4406	-75.7526	2.56049	10.6334	-65.2475	-0.630519	-17.918	-49.9717	-8.24744	-37.9365	-85.7771	-38.944	-42.3241	-56.8854	-48.9344	-37.1477	-47.1099	-43.6708	-2.21273	-88.6094	-63.5434	-36.228	-57.9619	-69.6275	-26.7545	-50.043	-56.3647	9.78998	-88.4408	-83.864	-19.909	-57.8753	-79.4088	-6.96755	-56.1158	-65.172	20.1144	-98.4469	-93.8357	-1.54979	-68.2378	-88.3952	7.06023	-71.7115	-58.9542	29.0931	-136.125	-62.8595	17.9578	-144.037	-51.1677	54.193	-130.265	-21.0893	26.7448	
194	1.61667	-98.1542	-0.550141	33.6155	-76.4054	5.52013	9.58942	-65.4163	0.251376	-13.2327	-54.1369	-13.6302	-35.7394	-88.165	-39.2027	-40.5459	-55.7479	-48.8433	-35.5314	-45.5954	-42.4415	-6.78665	-91.6819	-61.4551	-36.4184	-56.6369	-67.9346	-26.8089	-49.6726	-57.649	7.48991	-93.0754	-81.8491	-19.5622	-60.2504	-81.5665	-8.86011	-57.0294	-61.6533	22.2957	-98.6229	-95.0932	-0.693979	-69.5869	-84.5217	7.23886	-71.8298	-58.6756	26.3248	-137.449	-61.1719	21.0819	-141.217	-49.3845	54.8394	-132.025	-22.2817	29.9978	
195	1.625	-97.6703	0.401483	37.9962	-77.2968	4.87494	13.0889	-66.9675	2.15366	-15.5844	-52.3572	-10.7736	-33.7258	-90.3565	-36.0974	-39.9561	-56.1423	-49.8497	-35.6594	-47.4982	-42.1632	-4.48265	-92.207	-62.6443	-37.3281	-60.4686	-70.863	-30.084	-49.8935	-54.1948	7.97775	-93.4301	-83.232	-18.4272	-60.6177	-82.9197	-8.37077	-56.0224	-65.8332	20.0243	-96.6582	-94.3119	-1.30341	-71.1156	-86.5165	3.97871	-73.3906	-58.3354	24.599	-138.45	-59.6471	19.2989	-142.119	-48.6109	51.2046	-132.6	-22.83	25.3487	
196	1.63333	-99.3071	-1.75676	37.4249	-78.5913	6.26521	14.4041	-66.5723	4.23333	-12.7903	-53.947	-13.1	-37.9512	-89.1225	-35.0528	-40.5792	-59.8982	-49.4005	-37.4481	-49.3323	-42.2909	-2.6229	-94.7756	-61.427	-36.1125	-58.1228	-69.4436	-27.4058	-48.5326	-51.534	7.2455	-91.6225	-81.8661	-20.7332	-58.0448	-76.9358	-9.45282	-55.4973	-62.4279	19.1052	-97.6498	-93.2306	-1.8749	-69.8813	-85.8258	4.92586	-71.299	-60.5412	26.2638	-138.312	-61.3262	19.927	-144.786	-50.131	53.4326	-131.385	-19.291	29.0034	
197	1.64167	-99.7857	3.2734	36.7262	-79.3659	8.20046	14.3635	-69.4753	2.32218	-15.1042	-54.9611	-11.9574	-35.9171	-86.8755	-34.9907	-41.788	-56.4043	-48.0356	-34.674	-49.0931	-39.2076	-4.26311	-94.1493	-62.4995	-36.0688	-59.2295	-64.9518	-31.9167	-49.0716	-51.5424	7.43951	-91.9184	-79.785	-21.604	-59.5666	-77.7459	-11.4539	-55.9893	-65.9174	19.3009	-97.4635	-93.1801	-2.80351	-70.2707	-86.0332	5.07811	-67.7457	-60.8242	23.7379	-137.255	-58.8344	18.2434	-142.303	-49.1286	55.7014	-131.665	-22.4439	26.2797	
198	1.65	-98.9505	4.59302	39.9445	-80.8213	7.18968	12.8311	-69.6893	4.17725	-12.4373	-58.1343	-14.9588	-34.7211	-89.2403	-34.5033	-39.068	-56.0841	-45.0937	-37.5649	-49.729	-40.5978	-2.30739	-90.6817	-63.4388	-37.3591	-57.2707	-68.0866	-26.9442	-50.2129	-52.403	7.75016	-93.8405	-82.1059	-20.3085	-59.3571	-81.869	-8.55461	-54.2039	-65.362	16.9412	-100.335	-94.841	-1.49553	-70.0117	-88.7932	4.33314	-66.8496	-63.3242	24.1366	-137.953	-60.5989	16.6531	-141.933	-48.3882	52.9085	-132.273	-20.7018	29.3776	
199	1.65833	-100.664	-1.1023	36.9787	-83.7999	6.61902	9.70899	-72.5527	1.53315	-18.66	-60.8961	-16.5913	-32.6724	-87.641	-38.4672	-40.5944	-57.6254	-47.7794	-35.6653	-48.1067	-39.3678	-2.1651	-91.2542	-60.734	-38.251	-60.024	-67.747	-29.4747	-50.8923	-57.286	6.94775	-93.131	-79.9885	-21.5619	-60.7721	-80.0575	-11.2634	-55.8013	-66.0869	19.685	-95.3271	-97.1691	-2.88674	-71.3357	-88.3922	2.27993	-67.9029	-65.7225	25.3129	-136.027	-57.4921	16.7295	-143.091	-49.5275	53.2723	-132.001	-18.3683	24.5372	
200	1.66667	-101.128	0.477192	36.0642	-84.8226	7.89287	8.65455	-73.8035	2.87849	-18.7398	-64.7362	-20.0728	-32.8375	-86.7341	-38.6696	-41.3088	-57.4887	-46.534	-37.1715	-46.9529	-39.2949	-2.17253	-95.6306	-62.8235	-35.4503	-56.2521	-64.7229	-28.9524	-52.7926	-57.7674	8.12256	-95.1174	-77.4828	-21.8317	-61.6081	-81.7247	-12.3305	-55.807	-64.7455	18.5033	-99.4018	-94.0735	-3.40369	-71.1051	-88.0889	2.94382	-68.6946	-63.6364	27.245	-137.321	-59.7477	20.9904	-143.303	-51.2016	54.695	-133.701	-22.6744	30.3346	
201	1.675	-100.509	1.63917	35.5972	-82.2181	12.1875	10.3692	-74.8163	3.50422	-15.7769	-63.1835	-17.8918	-34.1149	-88.2664	-37.9555	-38.7591	-54.9935	-48.4404	-32.9308	-48.2003	-42.0104	-2.59629	-92.7825	-59.7089	-37.6704	-56.5809	-65.4657	-26.727	-51.8184	-56.8529	8.83525	-91.8333	-82.9262	-21.9509	-59.5009	-82.1992	-7.83787	-57.4133	-66.5117	22.6707	-97.7077	-96.4585	-3.73912	-68.0998	-87.9264	5.88631	-70.6068	-65.2288	26.5037	-137.417	-60.6618	16.6509	-142.589	-47.9275	54.7061	-133.599	-21.0694	29.8199	
202	1.68333	-99.3649	1.10236	40.314	-85.0013	4.26655	9.15305	-75.4692	0.0407927	-16.53	-61.7245	-17.143	-36.6846	-88.1131	-33.8507	-38.1084	-53.7779	-45.9051	-34.12	-49.8879	-42.8448	-0.26352	-93.1936	-58.5298	-36.2591	-54.9446	-63.7968	-27.2697	-52.6966	-58.798	9.5543	-91.6904	-77.8074	-23.0458	-60.5632	-79.6235	-12.9052	-56.4667	-66.5399	18.3577	-94.7672	-95.0969	-4.47159	-70.0623	-89.289	2.93097	-69.8656	-64.5587	26.7192	-135.603	-58.7328	16.1367	-143.817	-47.8545	51.7271	-131.263	-23.1144	25.6961	
203	1.69167	-99.2078	0.65567	36.2543	-80.7786	5.63349	7.28913	-71.9945	0.900272	-19.0066	-62.9659	-17.6093	-35.7786	-87.4993	-36.6252	-38.4146	-55.1664	-45.0556	-35.7127	-51.0387	-41.2238	1.1808	-92.816	-59.692	-35.3831	-56.0822	-63.811	-28.2016	-51.3511	-53.2104	7.94233	-92.0242	-81.543	-20.8422	-57.6786	-77.901	-8.09895	-57.6944	-66.3973	23.4233	-98.4847	-94.3996	-3.17936	-68.8461	-86.5916	4.72599	-70.7921	-64.3058	24.1255	-136.071	-62.2907	16.3925	-144.733	-53.0474	53.769	-130.194	-20.5361	25.6044	
204	1.7	-99.6409	-3.38675	36.5355	-80.3397	2.93691	8.31152	-71.6226	-2.41309	-14.1785	-61.255	-18.5564	-39.6146	-83.2863	-34.4731	-40.5923	-55.1755	-48.1156	-31.2885	-53.0975	-37.6906	3.38953	-91.9335	-62.9099	-35.1707	-57.4173	-66.3857	-28.7403	-52.9625	-56.4393	9.82894	-90.3386	-78.6842	-21.4058	-57.0415	-77.0457	-6.57361	-57.0928	-65.9104	20.9796	-96.8976	-95.1234	-2.91181	-68.0621	-86.907	5.33875	-69.606	-63.9209	28.0757	-135.401	-58.8908	17.2474	-142.16	-49.5508	51.9034	-132.388	-22.2249	27.3235	
